<svg width="143" height="28" viewBox="0 0 143 28" fill="none" xmlns="http://www.w3.org/2000/svg">
<g clip-path="url(#clip0_6_1023)">
<path d="M43.7771 16.1405H46.6365L48.3357 18.3319L49.5311 19.7616L52.449 23.4999H49.3787L47.41 21.0038L46.5545 19.7968L43.7771 16.1405ZM44.8553 22.2343C43.3318 22.2343 41.9607 21.8788 40.742 21.1679C39.5311 20.4569 38.574 19.4335 37.8709 18.0976C37.1756 16.7616 36.8279 15.1561 36.8279 13.2811C36.8279 11.3983 37.1756 9.78894 37.8709 8.453C38.574 7.10925 39.5311 6.08191 40.742 5.37097C41.9607 4.66004 43.3318 4.30457 44.8553 4.30457C46.3865 4.30457 47.7537 4.66004 48.9568 5.37097C50.16 6.08191 51.1131 7.10925 51.8162 8.453C52.5193 9.78894 52.8709 11.3983 52.8709 13.2811C52.8709 15.1561 52.5193 16.7616 51.8162 18.0976C51.1131 19.4335 50.16 20.4569 48.9568 21.1679C47.7537 21.8788 46.3865 22.2343 44.8553 22.2343ZM44.8553 19.3983C45.8006 19.3983 46.6365 19.164 47.3631 18.6952C48.0897 18.2265 48.66 17.539 49.074 16.6327C49.4881 15.7187 49.6951 14.6015 49.6951 13.2811C49.6951 11.953 49.4881 10.8319 49.074 9.91785C48.66 9.00379 48.0897 8.31238 47.3631 7.84363C46.6365 7.37488 45.8006 7.1405 44.8553 7.1405C43.91 7.1405 43.0701 7.37488 42.3357 7.84363C41.6092 8.31238 41.0389 9.00379 40.6248 9.91785C40.2107 10.8319 40.0037 11.953 40.0037 13.2811C40.0037 14.6015 40.2107 15.7187 40.6248 16.6327C41.0389 17.539 41.6092 18.2265 42.3357 18.6952C43.0701 19.164 43.91 19.3983 44.8553 19.3983ZM62.7151 16.5038V8.89832H65.7972V21.9999H62.8089V19.6679H62.6682C62.3714 20.4022 61.887 21.0038 61.2151 21.4726C60.5432 21.9413 59.7151 22.1718 58.7307 22.164C57.8714 22.164 57.1136 21.9765 56.4573 21.6015C55.8089 21.2187 55.2972 20.6601 54.9222 19.9257C54.555 19.1835 54.3714 18.289 54.3714 17.2421V8.89832H57.4534V16.7733C57.4534 17.5937 57.68 18.2499 58.1331 18.7421C58.594 19.2343 59.1956 19.4765 59.9378 19.4687C60.3909 19.4687 60.8284 19.3593 61.2503 19.1405C61.68 18.9218 62.0315 18.5937 62.305 18.1561C62.5784 17.7187 62.7151 17.1679 62.7151 16.5038ZM71.3757 22.2694C70.5398 22.2694 69.7898 22.121 69.1257 21.8241C68.4617 21.5194 67.9382 21.0741 67.5554 20.4882C67.1726 19.9022 66.9812 19.1796 66.9812 18.3202C66.9812 17.5858 67.1179 16.9765 67.3914 16.4921C67.6648 16.0077 68.0359 15.621 68.5047 15.3319C68.9812 15.0429 69.5164 14.8241 70.1101 14.6757C70.7039 14.5194 71.3172 14.4101 71.95 14.3476C72.7234 14.2616 73.3484 14.1874 73.825 14.1249C74.3015 14.0624 74.6453 13.9608 74.8562 13.8202C75.075 13.6796 75.1843 13.4608 75.1843 13.164V13.1054C75.1843 12.4726 74.9968 11.9804 74.6218 11.6288C74.2468 11.2772 73.7 11.1015 72.9812 11.1015C72.2234 11.1015 71.6218 11.2655 71.1765 11.5937C70.739 11.9218 70.4422 12.3085 70.2859 12.7538L67.4148 12.3437C67.6414 11.5468 68.0164 10.8827 68.5398 10.3515C69.0632 9.81238 69.7 9.41004 70.45 9.14441C71.2078 8.87097 72.0437 8.73426 72.9578 8.73426C73.5828 8.73426 74.2078 8.80847 74.8328 8.95691C75.4578 9.09754 76.032 9.33972 76.5554 9.68347C77.0789 10.0272 77.4968 10.4882 77.8093 11.0663C78.1218 11.6444 78.2781 12.3671 78.2781 13.2343V21.9999H75.3132V20.1952H75.2195C75.032 20.5546 74.7664 20.8944 74.4226 21.2147C74.0867 21.5272 73.6648 21.7811 73.157 21.9765C72.657 22.1718 72.0632 22.2694 71.3757 22.2694ZM72.1609 19.996C72.7859 19.996 73.325 19.8749 73.7781 19.6327C74.2312 19.3827 74.5828 19.0546 74.8328 18.6483C75.0828 18.2343 75.2078 17.7851 75.2078 17.3007V15.7655C75.1062 15.8437 74.9422 15.9179 74.7156 15.9882C74.489 16.0507 74.2312 16.1093 73.9422 16.164C73.6531 16.2187 73.3679 16.2655 73.0867 16.3046C72.8132 16.3437 72.575 16.3749 72.3718 16.3983C71.9109 16.4608 71.4968 16.5663 71.1297 16.7147C70.7703 16.8554 70.4851 17.0507 70.2742 17.3007C70.0632 17.5507 69.9578 17.8749 69.9578 18.2733C69.9578 18.8437 70.1648 19.2733 70.5789 19.5624C70.9929 19.8515 71.5203 19.996 72.1609 19.996ZM83.1653 14.3358V21.9999H80.0832V8.89832H83.1067V11.1366H83.259C83.5559 10.4022 84.0207 9.82019 84.6536 9.3905C85.2942 8.953 86.1067 8.73426 87.0911 8.73426C87.9973 8.73426 88.7864 8.92566 89.4582 9.30847C90.1301 9.69129 90.6497 10.2538 91.0168 10.996C91.3918 11.7304 91.5793 12.621 91.5793 13.6679V21.9999H88.4973V14.1483C88.4973 13.2733 88.2707 12.5897 87.8176 12.0976C87.3645 11.5976 86.7395 11.3476 85.9426 11.3476C85.4036 11.3476 84.9231 11.4647 84.5012 11.6991C84.0872 11.9335 83.759 12.2733 83.5168 12.7187C83.2825 13.1561 83.1653 13.6952 83.1653 14.3358ZM99.9118 8.89832V11.289H92.4001V8.89832H99.9118ZM94.24 5.78113H97.322V18.0624C97.322 18.578 97.4353 18.9608 97.6618 19.2108C97.8884 19.453 98.2478 19.5741 98.74 19.5741C98.8728 19.5741 99.0212 19.5624 99.1853 19.539C99.3493 19.5155 99.4978 19.4882 99.6306 19.4569L100.158 21.871C99.8298 21.9726 99.4978 22.0468 99.1618 22.0937C98.8259 22.1483 98.49 22.1757 98.154 22.1757C96.9353 22.1757 95.9782 21.8554 95.2829 21.2147C94.5876 20.5663 94.24 19.6835 94.24 18.5663V5.78113ZM106.791 22.2577C105.479 22.2577 104.346 21.9843 103.393 21.4374C102.44 20.8827 101.705 20.1015 101.19 19.0937C100.682 18.0858 100.428 16.8983 100.428 15.5311C100.428 14.1796 100.682 12.996 101.19 11.9804C101.698 10.9569 102.412 10.1601 103.334 9.58972C104.256 9.01941 105.342 8.73426 106.592 8.73426C107.397 8.73426 108.158 8.86316 108.877 9.12097C109.604 9.37879 110.244 9.77722 110.799 10.3163C111.362 10.8554 111.803 11.5429 112.123 12.3788C112.444 13.2069 112.604 14.1952 112.604 15.3437V16.3046H101.869V14.2304H111.069L109.627 14.8397C109.627 14.0976 109.514 13.453 109.287 12.9061C109.061 12.3515 108.725 11.9179 108.28 11.6054C107.834 11.2929 107.28 11.1366 106.616 11.1366C105.951 11.1366 105.385 11.2929 104.916 11.6054C104.448 11.9179 104.092 12.3397 103.85 12.871C103.608 13.3944 103.487 13.9804 103.487 14.6288V16.0702C103.487 16.8671 103.623 17.5507 103.897 18.121C104.178 18.6835 104.569 19.1132 105.069 19.4101C105.576 19.7069 106.166 19.8554 106.838 19.8554C107.276 19.8554 107.674 19.7929 108.033 19.6679C108.401 19.5429 108.713 19.3554 108.971 19.1054C109.237 18.8476 109.44 18.5311 109.58 18.1561L112.463 18.496C112.276 19.2538 111.928 19.9179 111.42 20.4882C110.92 21.0507 110.276 21.4882 109.487 21.8007C108.705 22.1054 107.807 22.2577 106.791 22.2577ZM115.827 8.89832L118.464 13.7499L121.147 8.89832H124.417L120.479 15.4608L124.487 21.9999H121.241L118.464 17.289L115.733 21.9999H112.464L116.436 15.4608L112.557 8.89832H115.827ZM125.437 21.9999V8.89832H128.519V21.9999H125.437ZM126.984 7.05847C126.491 7.05847 126.07 6.89441 125.718 6.56629C125.366 6.23816 125.191 5.84363 125.191 5.38269C125.191 4.91394 125.366 4.5155 125.718 4.18738C126.07 3.85926 126.491 3.69519 126.984 3.69519C127.468 3.69519 127.886 3.85926 128.238 4.18738C128.589 4.5155 128.765 4.91004 128.765 5.37097C128.765 5.83972 128.589 6.23816 128.238 6.56629C127.886 6.89441 127.468 7.05847 126.984 7.05847ZM134.097 22.2694C133.261 22.2694 132.511 22.121 131.847 21.8241C131.183 21.5194 130.66 21.0741 130.277 20.4882C129.894 19.9022 129.703 19.1796 129.703 18.3202C129.703 17.5858 129.84 16.9765 130.113 16.4921C130.386 16.0077 130.758 15.621 131.226 15.3319C131.703 15.0429 132.238 14.8241 132.832 14.6757C133.426 14.5194 134.039 14.4101 134.672 14.3476C135.445 14.2616 136.07 14.1874 136.547 14.1249C137.023 14.0624 137.367 13.9608 137.578 13.8202C137.797 13.6796 137.906 13.4608 137.906 13.164V13.1054C137.906 12.4726 137.719 11.9804 137.344 11.6288C136.969 11.2772 136.422 11.1015 135.703 11.1015C134.945 11.1015 134.344 11.2655 133.898 11.5937C133.461 11.9218 133.164 12.3085 133.008 12.7538L130.136 12.3437C130.363 11.5468 130.738 10.8827 131.261 10.3515C131.785 9.81238 132.422 9.41004 133.172 9.14441C133.929 8.87097 134.765 8.73426 135.679 8.73426C136.304 8.73426 136.929 8.80847 137.554 8.95691C138.179 9.09754 138.754 9.33972 139.277 9.68347C139.801 10.0272 140.219 10.4882 140.531 11.0663C140.844 11.6444 141 12.3671 141 13.2343V21.9999H138.035V20.1952H137.941C137.754 20.5546 137.488 20.8944 137.144 21.2147C136.808 21.5272 136.386 21.7811 135.879 21.9765C135.379 22.1718 134.785 22.2694 134.097 22.2694ZM134.883 19.996C135.508 19.996 136.047 19.8749 136.5 19.6327C136.953 19.3827 137.304 19.0546 137.554 18.6483C137.804 18.2343 137.929 17.7851 137.929 17.3007V15.7655C137.828 15.8437 137.664 15.9179 137.437 15.9882C137.211 16.0507 136.953 16.1093 136.664 16.164C136.375 16.2187 136.09 16.2655 135.808 16.3046C135.535 16.3437 135.297 16.3749 135.094 16.3983C134.633 16.4608 134.219 16.5663 133.851 16.7147C133.492 16.8554 133.207 17.0507 132.996 17.3007C132.785 17.5507 132.679 17.8749 132.679 18.2733C132.679 18.8437 132.886 19.2733 133.301 19.5624C133.715 19.8515 134.242 19.996 134.883 19.996Z" fill="white"/>
<path fill-rule="evenodd" clip-rule="evenodd" d="M17.8373 8.17971C16.6894 7.41055 15.3398 7 13.9593 7V0C16.7204 0 19.4195 0.821086 21.7153 2.35943C24.0111 3.89776 25.8004 6.08427 26.857 8.64241C27.9136 11.2006 28.1901 14.0155 27.6514 16.7313C27.1128 19.447 25.7832 21.9416 23.8308 23.8995C21.8784 25.8574 19.3909 27.1908 16.6828 27.731C13.9748 28.2712 11.1678 27.9939 8.61686 26.9343C6.06595 25.8747 3.88563 24.0803 2.35165 21.778C0.817664 19.4757 -0.00109863 16.7689 -0.00109863 14H6.9791C6.9791 15.3845 7.38849 16.7378 8.15547 17.889C8.92245 19.0401 10.0126 19.9373 11.2881 20.4672C12.5635 20.997 13.967 21.1356 15.3211 20.8655C16.6751 20.5954 17.9188 19.9287 18.8951 18.9498C19.8712 17.9707 20.536 16.7235 20.8053 15.3656C21.0747 14.0078 20.9365 12.6003 20.4082 11.3212C19.8798 10.0421 18.9852 8.94887 17.8373 8.17971Z" fill="white"/>
<path fill-rule="evenodd" clip-rule="evenodd" d="M6.97909 3.69945e-06C6.97909 0.919257 6.79855 1.82951 6.44776 2.67879C6.09697 3.52807 5.58282 4.29974 4.93464 4.94975C4.28648 5.59976 3.51699 6.11538 2.67011 6.46716C1.82323 6.81894 0.915551 7 -0.00109833 7L-0.00109863 14C1.8322 14 3.64756 13.6379 5.34132 12.9343C7.03508 12.2308 8.57407 11.1995 9.87036 9.89947C11.1667 8.5995 12.195 7.05614 12.8966 5.35757C13.5982 3.65901 13.9593 1.8385 13.9593 0L6.97909 3.69945e-06Z" fill="white"/>
</g>
<defs>
<clipPath id="clip0_6_1023">
<rect width="143" height="28" fill="white"/>
</clipPath>
</defs>
</svg>
