<svg width="127" height="28" viewBox="0 0 127 28" fill="none" xmlns="http://www.w3.org/2000/svg">
<g clip-path="url(#clip0_6_1012)">
<path d="M43.4297 22.2694C42.0703 22.2694 40.8906 22.0585 39.8906 21.6366C38.8906 21.2147 38.1094 20.6015 37.5469 19.7968C36.9844 18.9843 36.6797 17.9999 36.6328 16.8437H39.75C39.7969 17.453 39.9844 17.9608 40.3125 18.3671C40.6406 18.7655 41.0703 19.0663 41.6016 19.2694C42.1406 19.4726 42.7383 19.5741 43.3945 19.5741C44.082 19.5741 44.6875 19.4687 45.2109 19.2577C45.7344 19.0468 46.1445 18.7538 46.4414 18.3788C46.7383 18.0038 46.8867 17.5663 46.8867 17.0663C46.8867 16.6132 46.7539 16.2421 46.4883 15.953C46.2227 15.6561 45.8555 15.4061 45.3867 15.203C44.918 14.9999 44.3672 14.8202 43.7344 14.664L41.7539 14.1483C40.3164 13.7811 39.1836 13.2226 38.3555 12.4726C37.5273 11.7147 37.1133 10.7069 37.1133 9.4491C37.1133 8.41785 37.3906 7.51941 37.9453 6.75379C38.5 5.98035 39.2578 5.37879 40.2188 4.9491C41.1875 4.51941 42.2812 4.30457 43.5 4.30457C44.7422 4.30457 45.832 4.51941 46.7695 4.9491C47.707 5.37879 48.4414 5.97254 48.9727 6.73035C49.5039 7.48816 49.7812 8.35926 49.8047 9.34363H46.7461C46.668 8.59363 46.3359 8.0155 45.75 7.60926C45.1719 7.19519 44.4102 6.98816 43.4648 6.98816C42.8086 6.98816 42.2422 7.08582 41.7656 7.28113C41.2969 7.47644 40.9375 7.74597 40.6875 8.08972C40.4375 8.43347 40.3125 8.8241 40.3125 9.2616C40.3125 9.74597 40.457 10.1444 40.7461 10.4569C41.043 10.7616 41.418 11.0077 41.8711 11.1952C42.332 11.3827 42.8008 11.539 43.2773 11.664L44.9062 12.0741C45.5625 12.2304 46.1953 12.4413 46.8047 12.7069C47.4141 12.9647 47.9609 13.2929 48.4453 13.6913C48.9375 14.0819 49.3242 14.5585 49.6055 15.121C49.8945 15.6835 50.0391 16.3437 50.0391 17.1015C50.0391 18.1171 49.7773 19.0155 49.2539 19.7968C48.7305 20.5702 47.9766 21.1757 46.9922 21.6132C46.0078 22.0507 44.8203 22.2694 43.4297 22.2694ZM53.2505 26.8983C52.8286 26.9061 52.438 26.8749 52.0786 26.8046C51.727 26.7421 51.4419 26.6679 51.2231 26.5819L51.9497 24.1796L52.102 24.2265C52.727 24.3905 53.2583 24.4022 53.6958 24.2616C54.1411 24.121 54.4966 23.6952 54.7622 22.9843L55.02 22.2811L50.2856 8.89832H53.5552L56.5669 18.8007H56.7075L59.7309 8.89832H63.0239L57.7739 23.5819C57.5317 24.2772 57.2114 24.871 56.813 25.3632C56.4145 25.8632 55.9223 26.2421 55.3364 26.4999C54.7505 26.7655 54.0552 26.8983 53.2505 26.8983ZM66.8681 14.3358V21.9999H63.7861V8.89832H66.8095V11.1366H66.9619C67.2588 10.4022 67.7236 9.82019 68.3564 9.3905C68.997 8.953 69.8095 8.73426 70.7939 8.73426C71.7002 8.73426 72.4892 8.92566 73.1611 9.30847C73.833 9.69129 74.3525 10.2538 74.7197 10.996C75.0947 11.7304 75.2822 12.621 75.2822 13.6679V21.9999H72.2002V14.1483C72.2002 13.2733 71.9736 12.5897 71.5205 12.0976C71.0673 11.5976 70.4423 11.3476 69.6455 11.3476C69.1064 11.3476 68.6259 11.4647 68.2041 11.6991C67.79 11.9335 67.4619 12.2733 67.2197 12.7187C66.9853 13.1561 66.8681 13.6952 66.8681 14.3358ZM83.6147 8.89832V11.289H76.103V8.89832H83.6147ZM77.9428 5.78113H81.0248V18.0624C81.0248 18.578 81.1381 18.9608 81.3647 19.2108C81.5913 19.453 81.9506 19.5741 82.4428 19.5741C82.5756 19.5741 82.7241 19.5624 82.8881 19.539C83.0522 19.5155 83.2006 19.4882 83.3334 19.4569L83.8608 21.871C83.5327 21.9726 83.2006 22.0468 82.8647 22.0937C82.5288 22.1483 82.1928 22.1757 81.8569 22.1757C80.6381 22.1757 79.6811 21.8554 78.9858 21.2147C78.2905 20.5663 77.9428 19.6835 77.9428 18.5663V5.78113ZM84.8339 21.9999V8.89832H87.8222V11.1015H87.9628C88.1972 10.3358 88.6073 9.74988 89.1933 9.34363C89.7792 8.92957 90.4472 8.72254 91.1972 8.72254C91.3613 8.72254 91.5488 8.73035 91.7597 8.74597C91.9784 8.7616 92.1581 8.78113 92.2988 8.80457V11.6405C92.1659 11.5937 91.9589 11.5546 91.6777 11.5233C91.3964 11.4921 91.1269 11.4765 90.8691 11.4765C90.2988 11.4765 89.7909 11.5976 89.3456 11.8397C88.9003 12.0819 88.5488 12.414 88.2909 12.8358C88.0409 13.2577 87.9159 13.7499 87.9159 14.3124V21.9999H84.8339ZM92.9789 21.9999V8.89832H96.0609V21.9999H92.9789ZM94.5258 7.05847C94.0336 7.05847 93.6117 6.89441 93.2602 6.56629C92.9086 6.23816 92.7328 5.84363 92.7328 5.38269C92.7328 4.91394 92.9086 4.5155 93.2602 4.18738C93.6117 3.85926 94.0336 3.69519 94.5258 3.69519C95.0102 3.69519 95.4281 3.85926 95.7797 4.18738C96.1312 4.5155 96.307 4.91004 96.307 5.37097C96.307 5.83972 96.1312 6.23816 95.7797 6.56629C95.4281 6.89441 95.0102 7.05847 94.5258 7.05847ZM100.386 8.89832L103.022 13.7499L105.706 8.89832H108.975L105.038 15.4608L109.046 21.9999H105.8L103.022 17.289L100.292 21.9999H97.0223L100.995 15.4608L97.1161 8.89832H100.386ZM109.995 21.9999V8.89832H113.077V21.9999H109.995ZM111.542 7.05847C111.05 7.05847 110.628 6.89441 110.277 6.56629C109.925 6.23816 109.749 5.84363 109.749 5.38269C109.749 4.91394 109.925 4.5155 110.277 4.18738C110.628 3.85926 111.05 3.69519 111.542 3.69519C112.027 3.69519 112.445 3.85926 112.796 4.18738C113.148 4.5155 113.324 4.91004 113.324 5.37097C113.324 5.83972 113.148 6.23816 112.796 6.56629C112.445 6.89441 112.027 7.05847 111.542 7.05847ZM118.656 22.2694C117.82 22.2694 117.07 22.121 116.406 21.8241C115.742 21.5194 115.219 21.0741 114.836 20.4882C114.453 19.9022 114.262 19.1796 114.262 18.3202C114.262 17.5858 114.398 16.9765 114.672 16.4921C114.945 16.0077 115.316 15.621 115.785 15.3319C116.262 15.0429 116.797 14.8241 117.39 14.6757C117.984 14.5194 118.598 14.4101 119.23 14.3476C120.004 14.2616 120.629 14.1874 121.105 14.1249C121.582 14.0624 121.926 13.9608 122.137 13.8202C122.355 13.6796 122.465 13.4608 122.465 13.164V13.1054C122.465 12.4726 122.277 11.9804 121.902 11.6288C121.527 11.2772 120.98 11.1015 120.262 11.1015C119.504 11.1015 118.902 11.2655 118.457 11.5937C118.019 11.9218 117.723 12.3085 117.566 12.7538L114.695 12.3437C114.922 11.5468 115.297 10.8827 115.82 10.3515C116.344 9.81238 116.98 9.41004 117.73 9.14441C118.488 8.87097 119.324 8.73426 120.238 8.73426C120.863 8.73426 121.488 8.80847 122.113 8.95691C122.738 9.09754 123.312 9.33972 123.836 9.68347C124.359 10.0272 124.777 10.4882 125.09 11.0663C125.402 11.6444 125.558 12.3671 125.558 13.2343V21.9999H122.594V20.1952H122.5C122.312 20.5546 122.047 20.8944 121.703 21.2147C121.367 21.5272 120.945 21.7811 120.437 21.9765C119.937 22.1718 119.344 22.2694 118.656 22.2694ZM119.441 19.996C120.066 19.996 120.605 19.8749 121.058 19.6327C121.512 19.3827 121.863 19.0546 122.113 18.6483C122.363 18.2343 122.488 17.7851 122.488 17.3007V15.7655C122.387 15.8437 122.223 15.9179 121.996 15.9882C121.769 16.0507 121.512 16.1093 121.223 16.164C120.933 16.2187 120.648 16.2655 120.367 16.3046C120.094 16.3437 119.855 16.3749 119.652 16.3983C119.191 16.4608 118.777 16.5663 118.41 16.7147C118.051 16.8554 117.765 17.0507 117.555 17.3007C117.344 17.5507 117.238 17.8749 117.238 18.2733C117.238 18.8437 117.445 19.2733 117.859 19.5624C118.273 19.8515 118.801 19.996 119.441 19.996Z" fill="white"/>
<path fill-rule="evenodd" clip-rule="evenodd" d="M14.0011 0C21.7327 0 28.0012 6.26802 28.0012 14C28.0012 21.732 21.7327 28 14.0011 28C6.26918 28 0.0012207 21.732 0.0012207 14C0.0012207 6.26802 6.26918 0 14.0011 0ZM13.4951 1.04761C11.8979 1.27238 10.3771 2.55576 9.19656 4.70218C8.85412 5.32478 8.54515 6.01262 8.27593 6.75531C9.88116 6.35192 11.6445 6.11409 13.4951 6.07731V1.04761ZM7.09266 7.09156C7.42753 6.04071 7.8371 5.07388 8.30981 4.21445C8.895 3.15041 9.58954 2.23156 10.372 1.52584C6.11686 2.76166 2.76284 6.11575 1.527 10.371C2.23274 9.58846 3.15155 8.89392 4.21561 8.30872C5.07506 7.83601 6.04182 7.42637 7.09266 7.09156ZM6.75645 8.27477C6.35304 9.88001 6.11526 11.6434 6.07844 13.494H1.04876C1.27353 11.8968 2.5569 10.376 4.70336 9.19548C5.32594 8.85304 6.01375 8.54406 6.75645 8.27477ZM7.0907 13.494C7.13249 11.4744 7.42326 9.57838 7.9043 7.90314C9.57953 7.4221 11.4755 7.13132 13.4951 7.08953V9.27556C12.7417 11.2043 11.205 12.7408 9.27622 13.494H7.0907ZM6.07844 14.506H1.04876C1.27353 16.1032 2.5569 17.624 4.70336 18.8045C5.32594 19.147 6.01375 19.4559 6.75645 19.7252C6.35304 18.12 6.11526 16.3566 6.07844 14.506ZM7.9043 20.0969C7.42326 18.4216 7.13249 16.5256 7.0907 14.506H9.27622C11.205 15.2592 12.7417 16.7957 13.4951 18.7244V20.9105C11.4755 20.8687 9.57953 20.5779 7.9043 20.0969ZM7.09266 20.9084C6.04182 20.5736 5.07506 20.164 4.21561 19.6913C3.15155 19.1061 2.23274 18.4115 1.527 17.629C2.76284 21.8842 6.11686 25.2384 10.372 26.4741C9.58954 25.7684 8.895 24.8496 8.30981 23.7855C7.8371 22.9261 7.42753 21.9593 7.09266 20.9084ZM13.4951 26.9524C11.8979 26.7276 10.3771 25.4442 9.19656 23.2978C8.85412 22.6752 8.54515 21.9873 8.27593 21.2447C9.88116 21.6481 11.6445 21.8859 13.4951 21.9227V26.9524ZM17.6301 26.4741C18.4126 25.7684 19.1071 24.8496 19.6923 23.7855C20.1648 22.9261 20.575 21.9593 20.9096 20.9084C21.9602 20.5736 22.9269 20.164 23.7865 19.6913C24.8505 19.1061 25.7696 18.4115 26.4752 17.629C25.239 21.8842 21.8853 25.2384 17.6301 26.4741ZM19.7266 21.2447C19.4571 21.9873 19.1477 22.6752 18.8054 23.2978C17.625 25.4442 16.1042 26.7276 14.5071 26.9524V21.9227C16.3576 21.8859 18.121 21.6481 19.7266 21.2447ZM21.2456 19.7252C21.9882 19.4559 22.6763 19.147 23.2986 18.8045C25.4455 17.624 26.7286 16.1032 26.9533 14.506H21.9238C21.8867 16.3566 21.6488 18.12 21.2456 19.7252ZM20.9117 14.506C20.8697 16.5256 20.5792 18.4216 20.0976 20.0969C18.4226 20.5779 16.5266 20.8687 14.5071 20.9105V18.726C15.2602 16.7966 16.7972 15.2594 18.7266 14.506H20.9117ZM21.9238 13.494H26.9533C26.7286 11.8968 25.4455 10.376 23.2986 9.19548C22.6763 8.85304 21.9882 8.54406 21.2456 8.27477C21.6488 9.88001 21.8867 11.6434 21.9238 13.494ZM20.0976 7.90314C20.5792 9.57838 20.8697 11.4744 20.9117 13.494H18.7266C16.7972 12.7406 15.2602 11.2034 14.5071 9.27395V7.08953C16.5266 7.13132 18.4226 7.4221 20.0976 7.90314ZM20.9096 7.09156C21.9602 7.42637 22.9269 7.83601 23.7865 8.30872C24.8505 8.89392 25.7696 9.58846 26.4752 10.371C25.239 6.11575 21.8853 2.76166 17.6301 1.52584C18.4126 2.23156 19.1071 3.15041 19.6923 4.21445C20.1648 5.07388 20.575 6.04071 20.9096 7.09156ZM14.5071 1.04761C16.1042 1.27238 17.625 2.55576 18.8054 4.70218C19.1477 5.32479 19.4571 6.01262 19.7266 6.75531C18.121 6.35192 16.3576 6.11409 14.5071 6.07731V1.04761Z" fill="white"/>
</g>
<defs>
<clipPath id="clip0_6_1012">
<rect width="127" height="28" fill="white"/>
</clipPath>
</defs>
</svg>
