<svg width="129" height="28" viewBox="0 0 129 28" fill="none" xmlns="http://www.w3.org/2000/svg">
<g clip-path="url(#clip0_6_1030)">
<path d="M37.2688 21.9999V4.53894H40.4329V19.3515H48.1321V21.9999H37.2688ZM57.6834 16.5038V8.89832H60.7654V21.9999H57.7771V19.6679H57.6365C57.3396 20.4022 56.8552 21.0038 56.1834 21.4726C55.5115 21.9413 54.6834 22.1718 53.699 22.164C52.8396 22.164 52.0818 21.9765 51.4255 21.6015C50.7771 21.2187 50.2654 20.6601 49.8904 19.9257C49.5232 19.1835 49.3396 18.289 49.3396 17.2421V8.89832H52.4216V16.7733C52.4216 17.5937 52.6482 18.2499 53.1013 18.7421C53.5623 19.2343 54.1638 19.4765 54.906 19.4687C55.3591 19.4687 55.7966 19.3593 56.2185 19.1405C56.6482 18.9218 56.9998 18.5937 57.2732 18.1561C57.5466 17.7187 57.6834 17.1679 57.6834 16.5038ZM62.5705 21.9999V8.89832H65.512V11.1366H65.676C65.9495 10.3866 66.4026 9.80066 67.0354 9.37879C67.6682 8.9491 68.4182 8.73426 69.2854 8.73426C70.176 8.73426 70.926 8.9491 71.5354 9.37879C72.1448 9.80847 72.5705 10.3944 72.8127 11.1366H72.9534C73.2502 10.4101 73.7424 9.828 74.4299 9.3905C75.1174 8.953 75.9377 8.73426 76.8909 8.73426C78.094 8.73426 79.0745 9.11707 79.8323 9.88269C80.5979 10.6405 80.9807 11.7499 80.9807 13.2108V21.9999H77.887V13.6796C77.887 12.8749 77.6682 12.2851 77.2307 11.9101C76.801 11.5272 76.2737 11.3358 75.6487 11.3358C74.9065 11.3358 74.3284 11.5702 73.9143 12.039C73.5002 12.4999 73.2932 13.0937 73.2932 13.8202V21.9999H70.2463V13.5624C70.2463 12.8827 70.0471 12.3437 69.6487 11.9452C69.2502 11.539 68.7229 11.3358 68.0666 11.3358C67.6213 11.3358 67.2151 11.4491 66.8479 11.6757C66.4807 11.9022 66.1877 12.2187 65.969 12.6249C65.758 13.0311 65.6526 13.4999 65.6526 14.0311V21.9999H62.5705ZM88.4929 22.2577C87.2116 22.2577 86.1023 21.9765 85.1648 21.414C84.2273 20.8515 83.5007 20.0624 82.9851 19.0468C82.4773 18.0311 82.2234 16.8515 82.2234 15.5077C82.2234 14.1561 82.4773 12.9726 82.9851 11.9569C83.5007 10.9335 84.2273 10.1405 85.1648 9.578C86.1023 9.0155 87.2116 8.73426 88.4929 8.73426C89.7741 8.73426 90.8835 9.0155 91.821 9.578C92.7585 10.1405 93.4851 10.9335 94.0007 11.9569C94.5163 12.9726 94.7741 14.1561 94.7741 15.5077C94.7741 16.8515 94.5163 18.0311 94.0007 19.0468C93.4851 20.0624 92.7585 20.8515 91.821 21.414C90.8835 21.9765 89.7741 22.2577 88.4929 22.2577ZM88.4929 19.7733C89.2038 19.7733 89.7898 19.5858 90.2507 19.2108C90.7116 18.828 91.0554 18.3124 91.282 17.664C91.5163 17.0155 91.6335 16.2968 91.6335 15.5077C91.6335 14.703 91.5163 13.9765 91.282 13.328C91.0554 12.6796 90.7116 12.1679 90.2507 11.7929C89.7898 11.4101 89.2038 11.2187 88.4929 11.2187C87.7976 11.2187 87.2155 11.4101 86.7468 11.7929C86.278 12.1679 85.9265 12.6796 85.6921 13.328C85.4655 13.9765 85.3523 14.703 85.3523 15.5077C85.3523 16.2968 85.4655 17.0155 85.6921 17.664C85.9265 18.3124 86.278 18.828 86.7468 19.2108C87.2155 19.5858 87.7976 19.7733 88.4929 19.7733ZM95.9934 21.9999V8.89832H98.9816V11.1015H99.1223C99.3566 10.3358 99.7668 9.74988 100.353 9.34363C100.938 8.92957 101.606 8.72254 102.356 8.72254C102.521 8.72254 102.708 8.73035 102.919 8.74597C103.138 8.7616 103.317 8.78113 103.458 8.80457V11.6405C103.325 11.5937 103.118 11.5546 102.837 11.5233C102.556 11.4921 102.286 11.4765 102.028 11.4765C101.458 11.4765 100.95 11.5976 100.505 11.8397C100.06 12.0819 99.7082 12.414 99.4504 12.8358C99.2004 13.2577 99.0754 13.7499 99.0754 14.3124V21.9999H95.9934ZM104.138 21.9999V8.89832H107.22V21.9999H104.138ZM105.685 7.05847C105.193 7.05847 104.771 6.89441 104.419 6.56629C104.068 6.23816 103.892 5.84363 103.892 5.38269C103.892 4.91394 104.068 4.5155 104.419 4.18738C104.771 3.85926 105.193 3.69519 105.685 3.69519C106.169 3.69519 106.587 3.85926 106.939 4.18738C107.29 4.5155 107.466 4.91004 107.466 5.37097C107.466 5.83972 107.29 6.23816 106.939 6.56629C106.587 6.89441 106.169 7.05847 105.685 7.05847ZM115.553 8.89832V11.289H108.041V8.89832H115.553ZM109.881 5.78113H112.963V18.0624C112.963 18.578 113.076 18.9608 113.303 19.2108C113.529 19.453 113.889 19.5741 114.381 19.5741C114.514 19.5741 114.662 19.5624 114.826 19.539C114.99 19.5155 115.139 19.4882 115.271 19.4569L115.799 21.871C115.471 21.9726 115.139 22.0468 114.803 22.0937C114.467 22.1483 114.131 22.1757 113.795 22.1757C112.576 22.1757 111.619 21.8554 110.924 21.2147C110.228 20.5663 109.881 19.6835 109.881 18.5663V5.78113ZM122.432 22.2577C121.12 22.2577 119.987 21.9843 119.034 21.4374C118.08 20.8827 117.346 20.1015 116.83 19.0937C116.323 18.0858 116.069 16.8983 116.069 15.5311C116.069 14.1796 116.323 12.996 116.83 11.9804C117.338 10.9569 118.053 10.1601 118.975 9.58972C119.897 9.01941 120.983 8.73426 122.233 8.73426C123.038 8.73426 123.799 8.86316 124.518 9.12097C125.245 9.37879 125.885 9.77722 126.44 10.3163C127.002 10.8554 127.444 11.5429 127.764 12.3788C128.084 13.2069 128.245 14.1952 128.245 15.3437V16.3046H117.51V14.2304H126.709L125.268 14.8397C125.268 14.0976 125.155 13.453 124.928 12.9061C124.702 12.3515 124.366 11.9179 123.92 11.6054C123.475 11.2929 122.92 11.1366 122.256 11.1366C121.592 11.1366 121.026 11.2929 120.557 11.6054C120.088 11.9179 119.733 12.3397 119.491 12.871C119.248 13.3944 119.127 13.9804 119.127 14.6288V16.0702C119.127 16.8671 119.264 17.5507 119.538 18.121C119.819 18.6835 120.209 19.1132 120.709 19.4101C121.217 19.7069 121.807 19.8554 122.479 19.8554C122.916 19.8554 123.315 19.7929 123.674 19.6679C124.041 19.5429 124.354 19.3554 124.612 19.1054C124.877 18.8476 125.08 18.5311 125.221 18.1561L128.104 18.496C127.916 19.2538 127.569 19.9179 127.061 20.4882C126.561 21.0507 125.916 21.4882 125.127 21.8007C124.346 22.1054 123.448 22.2577 122.432 22.2577Z" fill="white"/>
<path d="M20.7424 12.0775C20.3642 12.4578 20.0746 12.9167 19.8942 13.4216C19.7138 13.9265 19.647 14.4649 19.6986 14.9986L19.6806 14.9806C19.7337 15.6088 19.6489 16.2409 19.4323 16.833C19.2156 17.425 18.8723 17.9627 18.4264 18.4084C17.9803 18.8541 17.4423 19.1973 16.8499 19.4137C16.2575 19.6302 15.625 19.715 14.9965 19.6619L15.0145 19.6799C14.2626 19.61 13.5075 19.7734 12.852 20.1481C12.1966 20.5228 11.6727 21.0904 11.3519 21.7735C11.031 22.4567 10.9288 23.222 11.0591 23.9654C11.1895 24.7086 11.5461 25.3937 12.0802 25.927C12.6144 26.4604 13.3002 26.8161 14.044 26.9457C14.7879 27.0753 15.5536 26.9724 16.2369 26.6512C16.9201 26.3299 17.4875 25.8059 17.8619 25.1505C18.2362 24.495 18.3991 23.7403 18.3285 22.9889L18.3474 23.0069C18.2944 22.3788 18.3791 21.7466 18.5957 21.1545C18.8124 20.5625 19.1557 20.0249 19.6017 19.5791C20.0478 19.1334 20.5857 18.7902 21.1781 18.5738C21.7705 18.3573 22.403 18.2725 23.0316 18.3256L23.0126 18.3076C23.6267 18.3628 24.2449 18.2621 24.8098 18.015C25.3747 17.7679 25.868 17.3822 26.244 16.8938C26.62 16.4055 26.8667 15.83 26.9609 15.2211C27.0552 14.612 26.9941 13.9891 26.7834 13.4099C26.5726 12.8308 26.219 12.3142 25.7553 11.908C25.2915 11.5018 24.7327 11.2191 24.1306 11.0863C23.5284 10.9535 22.9025 10.9746 22.3107 11.1478C21.7189 11.3212 21.1806 11.6409 20.7454 12.0775H20.7424Z" fill="white"/>
<path d="M13.7026 17.557L13.6842 17.5395C14.2038 17.5918 14.7285 17.528 15.2205 17.3527C15.7124 17.1774 16.1593 16.895 16.5287 16.5259C16.898 16.1567 17.1808 15.71 17.3564 15.2181C17.5321 14.7262 17.5962 14.2015 17.5443 13.6818L17.5628 13.6993C17.5111 13.0878 17.5936 12.4726 17.8042 11.8963C18.015 11.32 18.349 10.7967 18.7827 10.3628C19.2166 9.92898 19.7398 9.59495 20.316 9.3843C20.8922 9.17352 21.5074 9.09108 22.1188 9.14269L22.1004 9.12522C22.8317 9.19394 23.5664 9.03529 24.2042 8.67101C24.8422 8.30674 25.3522 7.75452 25.6647 7.0897C25.9773 6.42489 26.0771 5.67983 25.9508 4.95614C25.8244 4.23245 25.4779 3.56539 24.9584 3.04591C24.439 2.52645 23.772 2.17986 23.0484 2.05345C22.3249 1.92703 21.5799 2.02693 20.9151 2.33953C20.2504 2.65211 19.6983 3.16218 19.334 3.80015C18.9698 4.43811 18.8112 5.17292 18.8799 5.90435L18.8624 5.8859C18.9141 6.49735 18.8318 7.11274 18.6212 7.68908C18.4106 8.26542 18.0766 8.78882 17.6428 9.22278C17.209 9.65659 16.6856 9.99062 16.1094 10.2013C15.533 10.4119 14.9178 10.4942 14.3064 10.4425L14.3238 10.4609C13.8043 10.4086 13.2795 10.4724 12.7876 10.6477C12.2957 10.8229 11.8488 11.1054 11.4794 11.4746C11.11 11.8437 10.8272 12.2905 10.6515 12.7823C10.476 13.2742 10.4118 13.7989 10.4637 14.3186L10.4463 14.3011C10.4977 14.9125 10.4151 15.5278 10.2044 16.104C9.99359 16.6801 9.6597 17.2034 9.22594 17.6372C8.79213 18.0711 8.26894 18.405 7.69282 18.6158C7.11671 18.8266 6.50155 18.9092 5.89025 18.8577L5.90772 18.8752C5.17638 18.8065 4.44166 18.9651 3.80377 19.3294C3.16588 19.6937 2.65588 20.2459 2.34333 20.9107C2.03078 21.5756 1.93088 22.3206 2.05728 23.0443C2.18369 23.768 2.53023 24.435 3.04963 24.9545C3.56905 25.474 4.23603 25.8206 4.95963 25.947C5.68323 26.0733 6.4282 25.9735 7.09294 25.6609C7.75767 25.3483 8.30982 24.8383 8.67405 24.2003C9.03832 23.5623 9.19692 22.8275 9.1282 22.0961L9.14664 22.1136C9.095 21.5021 9.17751 20.8868 9.38822 20.3105C9.59885 19.7343 9.93283 19.211 10.3666 18.7771C10.8004 18.3433 11.3237 18.0092 11.8998 17.7986C12.4761 17.5878 13.0913 17.5053 13.7026 17.557Z" fill="white"/>
<path d="M7.26026 15.9224C7.63855 15.5421 7.92817 15.0831 8.10847 14.5781C8.28876 14.0731 8.35527 13.5345 8.30325 13.0009L8.3222 13.0189C8.26911 12.3905 8.3539 11.758 8.57069 11.1657C8.78749 10.5735 9.13105 10.0357 9.57739 9.58985C10.0237 9.14402 10.562 8.80091 11.1547 8.58452C11.7475 8.36812 12.3803 8.28364 13.0091 8.33698L12.9902 8.31902C13.7419 8.38941 14.4972 8.22634 15.1528 7.85207C15.8084 7.47781 16.3325 6.91054 16.6538 6.22765C16.975 5.54475 17.0776 4.77948 16.9476 4.03617C16.8177 3.29285 16.4614 2.6077 15.9275 2.07414C15.3936 1.54058 14.708 1.18457 13.9642 1.05469C13.2204 0.924793 12.4546 1.02735 11.7713 1.34834C11.0879 1.66933 10.5203 2.19315 10.1459 2.84836C9.77132 3.50357 9.60813 4.25828 9.6786 5.00956L9.66063 4.99161C9.71373 5.61984 9.62889 6.25208 9.41221 6.84419C9.19553 7.4363 8.85221 7.97403 8.40611 8.41984C7.96002 8.86564 7.42194 9.20879 6.82944 9.42527C6.23695 9.64181 5.60431 9.72659 4.97567 9.67353L4.99364 9.69148C4.37939 9.63643 3.76118 9.73727 3.19629 9.98453C2.6314 10.2317 2.1381 10.6176 1.76211 11.1061C1.38613 11.5945 1.13962 12.17 1.04543 12.7791C0.951238 13.3882 1.01241 14.0112 1.22327 14.5903C1.43414 15.1695 1.78788 15.6861 2.25172 16.0922C2.71555 16.4985 3.27447 16.7811 3.87669 16.9139C4.4789 17.0467 5.10492 17.0254 5.69675 16.8522C6.28857 16.6788 6.82703 16.359 7.26225 15.9224H7.26026Z" fill="white"/>
</g>
<defs>
<clipPath id="clip0_6_1030">
<rect width="129" height="28" fill="white"/>
</clipPath>
</defs>
</svg>
