<svg width="130" height="28" viewBox="0 0 130 28" fill="none" xmlns="http://www.w3.org/2000/svg">
<path d="M51.634 4.53894V21.9999H48.7981L40.5832 10.1054H40.4309V21.9999H37.2668V4.53894H40.1028L48.3176 16.4335H48.47V4.53894H51.634ZM59.3571 22.2577C58.0446 22.2577 56.9118 21.9843 55.9587 21.4374C55.0056 20.8827 54.2712 20.1015 53.7556 19.0937C53.2478 18.0858 52.9939 16.8983 52.9939 15.5311C52.9939 14.1796 53.2478 12.996 53.7556 11.9804C54.2634 10.9569 54.9782 10.1601 55.9001 9.58972C56.822 9.01941 57.9079 8.73426 59.1579 8.73426C59.9626 8.73426 60.7243 8.86316 61.4431 9.12097C62.1696 9.37879 62.8103 9.77722 63.365 10.3163C63.9275 10.8554 64.3689 11.5429 64.6892 12.3788C65.0096 13.2069 65.1696 14.1952 65.1696 15.3437V16.3046H54.4353V14.2304H63.6345L62.1931 14.8397C62.1931 14.0976 62.0798 13.453 61.8532 12.9061C61.6267 12.3515 61.2907 11.9179 60.8454 11.6054C60.4001 11.2929 59.8454 11.1366 59.1814 11.1366C58.5173 11.1366 57.9509 11.2929 57.4821 11.6054C57.0134 11.9179 56.6579 12.3397 56.4157 12.871C56.1735 13.3944 56.0525 13.9804 56.0525 14.6288V16.0702C56.0525 16.8671 56.1892 17.5507 56.4626 18.121C56.7439 18.6835 57.1345 19.1132 57.6345 19.4101C58.1423 19.7069 58.7321 19.8554 59.404 19.8554C59.8415 19.8554 60.24 19.7929 60.5993 19.6679C60.9665 19.5429 61.279 19.3554 61.5368 19.1054C61.8025 18.8476 62.0056 18.5311 62.1462 18.1561L65.029 18.496C64.8415 19.2538 64.4939 19.9179 63.986 20.4882C63.486 21.0507 62.8415 21.4882 62.0525 21.8007C61.2712 22.1054 60.3728 22.2577 59.3571 22.2577ZM68.3928 8.89832L71.0295 13.7499L73.7131 8.89832H76.9826L73.0451 15.4608L77.0529 21.9999H73.8068L71.0295 17.289L68.299 21.9999H65.0295L69.0021 15.4608L65.1232 8.89832H68.3928ZM81.7292 22.2694C80.8932 22.2694 80.1432 22.121 79.4792 21.8241C78.8151 21.5194 78.2917 21.0741 77.9089 20.4882C77.526 19.9022 77.3346 19.1796 77.3346 18.3202C77.3346 17.5858 77.4714 16.9765 77.7448 16.4921C78.0182 16.0077 78.3893 15.621 78.8581 15.3319C79.3346 15.0429 79.8698 14.8241 80.4635 14.6757C81.0573 14.5194 81.6706 14.4101 82.3034 14.3476C83.0768 14.2616 83.7018 14.1874 84.1784 14.1249C84.655 14.0624 84.9987 13.9608 85.2096 13.8202C85.4284 13.6796 85.5378 13.4608 85.5378 13.164V13.1054C85.5378 12.4726 85.3503 11.9804 84.9753 11.6288C84.6003 11.2772 84.0534 11.1015 83.3346 11.1015C82.5768 11.1015 81.9753 11.2655 81.53 11.5937C81.0925 11.9218 80.7956 12.3085 80.6393 12.7538L77.7682 12.3437C77.9948 11.5468 78.3698 10.8827 78.8932 10.3515C79.4167 9.81238 80.0534 9.41004 80.8034 9.14441C81.5612 8.87097 82.3971 8.73426 83.3112 8.73426C83.9362 8.73426 84.5612 8.80847 85.1862 8.95691C85.8112 9.09754 86.3854 9.33972 86.9089 9.68347C87.4323 10.0272 87.8503 10.4882 88.1628 11.0663C88.4753 11.6444 88.6315 12.3671 88.6315 13.2343V21.9999H85.6667V20.1952H85.5729C85.3854 20.5546 85.1198 20.8944 84.776 21.2147C84.4401 21.5272 84.0182 21.7811 83.5104 21.9765C83.0104 22.1718 82.4167 22.2694 81.7292 22.2694ZM82.5143 19.996C83.1393 19.996 83.6784 19.8749 84.1315 19.6327C84.5846 19.3827 84.9362 19.0546 85.1862 18.6483C85.4362 18.2343 85.5612 17.7851 85.5612 17.3007V15.7655C85.4596 15.8437 85.2956 15.9179 85.069 15.9882C84.8425 16.0507 84.5846 16.1093 84.2956 16.164C84.0065 16.2187 83.7214 16.2655 83.4401 16.3046C83.1667 16.3437 82.9284 16.3749 82.7253 16.3983C82.2643 16.4608 81.8503 16.5663 81.4831 16.7147C81.1237 16.8554 80.8385 17.0507 80.6276 17.3007C80.4167 17.5507 80.3112 17.8749 80.3112 18.2733C80.3112 18.8437 80.5182 19.2733 80.9323 19.5624C81.3464 19.8515 81.8737 19.996 82.5143 19.996ZM90.4367 21.9999V8.89832H93.425V11.1015H93.5656C93.8 10.3358 94.2101 9.74988 94.796 9.34363C95.382 8.92957 96.05 8.72254 96.8 8.72254C96.964 8.72254 97.1515 8.73035 97.3625 8.74597C97.5812 8.7616 97.7609 8.78113 97.9015 8.80457V11.6405C97.7687 11.5937 97.5617 11.5546 97.2804 11.5233C96.9992 11.4921 96.7296 11.4765 96.4718 11.4765C95.9015 11.4765 95.3937 11.5976 94.9484 11.8397C94.5031 12.0819 94.1515 12.414 93.8937 12.8358C93.6437 13.2577 93.5187 13.7499 93.5187 14.3124V21.9999H90.4367ZM98.5817 21.9999V8.89832H101.663V21.9999H98.5817ZM100.128 7.05847C99.6364 7.05847 99.2145 6.89441 98.8629 6.56629C98.5114 6.23816 98.3356 5.84363 98.3356 5.38269C98.3356 4.91394 98.5114 4.5155 98.8629 4.18738C99.2145 3.85926 99.6364 3.69519 100.128 3.69519C100.613 3.69519 101.031 3.85926 101.382 4.18738C101.734 4.5155 101.91 4.91004 101.91 5.37097C101.91 5.83972 101.734 6.23816 101.382 6.56629C101.031 6.89441 100.613 7.05847 100.128 7.05847ZM109.176 22.2577C107.894 22.2577 106.785 21.9765 105.848 21.414C104.91 20.8515 104.184 20.0624 103.668 19.0468C103.16 18.0311 102.906 16.8515 102.906 15.5077C102.906 14.1561 103.16 12.9726 103.668 11.9569C104.184 10.9335 104.91 10.1405 105.848 9.578C106.785 9.0155 107.894 8.73426 109.176 8.73426C110.457 8.73426 111.566 9.0155 112.504 9.578C113.441 10.1405 114.168 10.9335 114.684 11.9569C115.199 12.9726 115.457 14.1561 115.457 15.5077C115.457 16.8515 115.199 18.0311 114.684 19.0468C114.168 20.0624 113.441 20.8515 112.504 21.414C111.566 21.9765 110.457 22.2577 109.176 22.2577ZM109.176 19.7733C109.887 19.7733 110.473 19.5858 110.934 19.2108C111.394 18.828 111.738 18.3124 111.965 17.664C112.199 17.0155 112.316 16.2968 112.316 15.5077C112.316 14.703 112.199 13.9765 111.965 13.328C111.738 12.6796 111.394 12.1679 110.934 11.7929C110.473 11.4101 109.887 11.2187 109.176 11.2187C108.48 11.2187 107.898 11.4101 107.43 11.7929C106.961 12.1679 106.609 12.6796 106.375 13.328C106.148 13.9765 106.035 14.703 106.035 15.5077C106.035 16.2968 106.148 17.0155 106.375 17.664C106.609 18.3124 106.961 18.828 107.43 19.2108C107.898 19.5858 108.48 19.7733 109.176 19.7733ZM119.758 14.3358V21.9999H116.676V8.89832H119.7V11.1366H119.852C120.149 10.4022 120.614 9.82019 121.246 9.3905C121.887 8.953 122.7 8.73426 123.684 8.73426C124.59 8.73426 125.379 8.92566 126.051 9.30847C126.723 9.69129 127.243 10.2538 127.61 10.996C127.985 11.7304 128.172 12.621 128.172 13.6679V21.9999H125.09V14.1483C125.09 13.2733 124.864 12.5897 124.411 12.0976C123.957 11.5976 123.332 11.3476 122.536 11.3476C121.996 11.3476 121.516 11.4647 121.094 11.6991C120.68 11.9335 120.352 12.2733 120.11 12.7187C119.875 13.1561 119.758 13.6952 119.758 14.3358Z" fill="white"/>
<path d="M12.7463 2.00018L26.0021 17.6166V26.0002H19.816V20.6304L10.1882 9.28783H8.18813V26.0002H2.00208V2.00018H12.7463ZM19.816 10.329V2.00018H26.0021V10.329H19.816Z" fill="white"/>
</svg>
