<svg width="127" height="29" viewBox="0 0 127 29" fill="none" xmlns="http://www.w3.org/2000/svg">
<g clip-path="url(#clip0_6_1015)">
<path d="M43.4285 22.2694C42.0691 22.2694 40.8894 22.0585 39.8894 21.6366C38.8894 21.2147 38.1082 20.6015 37.5457 19.7968C36.9832 18.9843 36.6785 17.9999 36.6316 16.8437H39.7488C39.7957 17.453 39.9832 17.9608 40.3113 18.3671C40.6394 18.7655 41.0691 19.0663 41.6004 19.2694C42.1394 19.4726 42.7371 19.5741 43.3933 19.5741C44.0808 19.5741 44.6863 19.4687 45.2097 19.2577C45.7332 19.0468 46.1433 18.7538 46.4402 18.3788C46.7371 18.0038 46.8855 17.5663 46.8855 17.0663C46.8855 16.6132 46.7527 16.2421 46.4871 15.953C46.2215 15.6561 45.8543 15.4061 45.3855 15.203C44.9168 14.9999 44.366 14.8202 43.7332 14.664L41.7527 14.1483C40.3152 13.7811 39.1824 13.2226 38.3543 12.4726C37.5261 11.7147 37.1121 10.7069 37.1121 9.4491C37.1121 8.41785 37.3894 7.51941 37.9441 6.75379C38.4988 5.98035 39.2566 5.37879 40.2176 4.9491C41.1863 4.51941 42.28 4.30457 43.4988 4.30457C44.741 4.30457 45.8308 4.51941 46.7683 4.9491C47.7058 5.37879 48.4402 5.97254 48.9715 6.73035C49.5027 7.48816 49.78 8.35926 49.8035 9.34363H46.7449C46.6668 8.59363 46.3347 8.0155 45.7488 7.60926C45.1707 7.19519 44.409 6.98816 43.4636 6.98816C42.8074 6.98816 42.241 7.08582 41.7644 7.28113C41.2957 7.47644 40.9363 7.74597 40.6863 8.08972C40.4363 8.43347 40.3113 8.8241 40.3113 9.2616C40.3113 9.74597 40.4558 10.1444 40.7449 10.4569C41.0418 10.7616 41.4168 11.0077 41.8699 11.1952C42.3308 11.3827 42.7996 11.539 43.2761 11.664L44.905 12.0741C45.5613 12.2304 46.1941 12.4413 46.8035 12.7069C47.4129 12.9647 47.9597 13.2929 48.4441 13.6913C48.9363 14.0819 49.323 14.5585 49.6043 15.121C49.8933 15.6835 50.0379 16.3437 50.0379 17.1015C50.0379 18.1171 49.7761 19.0155 49.2527 19.7968C48.7293 20.5702 47.9754 21.1757 46.991 21.6132C46.0066 22.0507 44.8191 22.2694 43.4285 22.2694ZM57.0344 22.2577C55.7532 22.2577 54.6438 21.9765 53.7063 21.414C52.7688 20.8515 52.0422 20.0624 51.5266 19.0468C51.0188 18.0311 50.7649 16.8515 50.7649 15.5077C50.7649 14.1561 51.0188 12.9726 51.5266 11.9569C52.0422 10.9335 52.7688 10.1405 53.7063 9.578C54.6438 9.0155 55.7532 8.73426 57.0344 8.73426C58.3157 8.73426 59.4251 9.0155 60.3626 9.578C61.3001 10.1405 62.0266 10.9335 62.5422 11.9569C63.0579 12.9726 63.3157 14.1561 63.3157 15.5077C63.3157 16.8515 63.0579 18.0311 62.5422 19.0468C62.0266 20.0624 61.3001 20.8515 60.3626 21.414C59.4251 21.9765 58.3157 22.2577 57.0344 22.2577ZM57.0344 19.7733C57.7454 19.7733 58.3313 19.5858 58.7922 19.2108C59.2532 18.828 59.5969 18.3124 59.8235 17.664C60.0579 17.0155 60.1751 16.2968 60.1751 15.5077C60.1751 14.703 60.0579 13.9765 59.8235 13.328C59.5969 12.6796 59.2532 12.1679 58.7922 11.7929C58.3313 11.4101 57.7454 11.2187 57.0344 11.2187C56.3391 11.2187 55.7571 11.4101 55.2883 11.7929C54.8196 12.1679 54.468 12.6796 54.2336 13.328C54.0071 13.9765 53.8938 14.703 53.8938 15.5077C53.8938 16.2968 54.0071 17.0155 54.2336 17.664C54.468 18.3124 54.8196 18.828 55.2883 19.2108C55.7571 19.5858 56.3391 19.7733 57.0344 19.7733ZM67.6169 4.53894V21.9999H64.5349V4.53894H67.6169ZM81.1174 8.89832L76.4533 21.9999H73.0315L68.3791 8.89832H71.6721L74.7072 18.6366H74.8479L77.8596 8.89832H81.1174ZM85.278 22.2694C84.4421 22.2694 83.6921 22.121 83.028 21.8241C82.364 21.5194 81.8405 21.0741 81.4577 20.4882C81.0749 19.9022 80.8835 19.1796 80.8835 18.3202C80.8835 17.5858 81.0202 16.9765 81.2936 16.4921C81.5671 16.0077 81.9382 15.621 82.4069 15.3319C82.8835 15.0429 83.4186 14.8241 84.0124 14.6757C84.6061 14.5194 85.2194 14.4101 85.8522 14.3476C86.6257 14.2616 87.2507 14.1874 87.7272 14.1249C88.2038 14.0624 88.5476 13.9608 88.7585 13.8202C88.9772 13.6796 89.0866 13.4608 89.0866 13.164V13.1054C89.0866 12.4726 88.8991 11.9804 88.5241 11.6288C88.1491 11.2772 87.6022 11.1015 86.8835 11.1015C86.1257 11.1015 85.5241 11.2655 85.0788 11.5937C84.6413 11.9218 84.3444 12.3085 84.1882 12.7538L81.3171 12.3437C81.5436 11.5468 81.9186 10.8827 82.4421 10.3515C82.9655 9.81238 83.6022 9.41004 84.3522 9.14441C85.1101 8.87097 85.946 8.73426 86.8601 8.73426C87.4851 8.73426 88.1101 8.80847 88.7351 8.95691C89.3601 9.09754 89.9343 9.33972 90.4577 9.68347C90.9811 10.0272 91.3991 10.4882 91.7116 11.0663C92.0241 11.6444 92.1804 12.3671 92.1804 13.2343V21.9999H89.2155V20.1952H89.1218C88.9343 20.5546 88.6686 20.8944 88.3249 21.2147C87.989 21.5272 87.5671 21.7811 87.0593 21.9765C86.5593 22.1718 85.9655 22.2694 85.278 22.2694ZM86.0632 19.996C86.6882 19.996 87.2272 19.8749 87.6804 19.6327C88.1335 19.3827 88.4851 19.0546 88.7351 18.6483C88.9851 18.2343 89.1101 17.7851 89.1101 17.3007V15.7655C89.0085 15.8437 88.8444 15.9179 88.6179 15.9882C88.3913 16.0507 88.1335 16.1093 87.8444 16.164C87.5554 16.2187 87.2702 16.2655 86.989 16.3046C86.7155 16.3437 86.4772 16.3749 86.2741 16.3983C85.8132 16.4608 85.3991 16.5663 85.0319 16.7147C84.6726 16.8554 84.3874 17.0507 84.1765 17.3007C83.9655 17.5507 83.8601 17.8749 83.8601 18.2733C83.8601 18.8437 84.0671 19.2733 84.4811 19.5624C84.8952 19.8515 85.4226 19.996 86.0632 19.996ZM100.513 8.89832V11.289H93.0011V8.89832H100.513ZM94.841 5.78113H97.923V18.0624C97.923 18.578 98.0363 18.9608 98.2629 19.2108C98.4894 19.453 98.8488 19.5741 99.341 19.5741C99.4738 19.5741 99.6222 19.5624 99.7863 19.539C99.9504 19.5155 100.099 19.4882 100.232 19.4569L100.759 21.871C100.431 21.9726 100.099 22.0468 99.7629 22.0937C99.4269 22.1483 99.091 22.1757 98.755 22.1757C97.5363 22.1757 96.5793 21.8554 95.884 21.2147C95.1886 20.5663 94.841 19.6835 94.841 18.5663V5.78113ZM101.732 21.9999V8.89832H104.721V11.1015H104.861C105.096 10.3358 105.506 9.74988 106.092 9.34363C106.678 8.92957 107.346 8.72254 108.096 8.72254C108.26 8.72254 108.447 8.73035 108.658 8.74597C108.877 8.7616 109.057 8.78113 109.197 8.80457V11.6405C109.064 11.5937 108.857 11.5546 108.576 11.5233C108.295 11.4921 108.025 11.4765 107.767 11.4765C107.197 11.4765 106.689 11.5976 106.244 11.8397C105.799 12.0819 105.447 12.414 105.189 12.8358C104.939 13.2577 104.814 13.7499 104.814 14.3124V21.9999H101.732ZM109.877 21.9999V8.89832H112.959V21.9999H109.877ZM111.424 7.05847C110.932 7.05847 110.51 6.89441 110.159 6.56629C109.807 6.23816 109.631 5.84363 109.631 5.38269C109.631 4.91394 109.807 4.5155 110.159 4.18738C110.51 3.85926 110.932 3.69519 111.424 3.69519C111.909 3.69519 112.326 3.85926 112.678 4.18738C113.03 4.5155 113.205 4.91004 113.205 5.37097C113.205 5.83972 113.03 6.23816 112.678 6.56629C112.326 6.89441 111.909 7.05847 111.424 7.05847ZM117.284 8.89832L119.921 13.7499L122.604 8.89832H125.874L121.936 15.4608L125.944 21.9999H122.698L119.921 17.289L117.19 21.9999H113.921L117.893 15.4608L114.014 8.89832H117.284Z" fill="white"/>
<path d="M17.6246 0.740155L14.8622 -6.10352e-05L12.5342 8.68815L10.4324 0.844375L7.66986 1.58459L9.94067 10.0592L4.28461 4.40318L2.26231 6.42549L8.46629 12.6295L0.740215 10.5593L0 13.3218L8.44171 15.5837C8.34506 15.1669 8.29393 14.7325 8.29393 14.2862C8.29393 11.1271 10.8548 8.56629 14.0139 8.56629C17.1729 8.56629 19.7338 11.1271 19.7338 14.2862C19.7338 14.7296 19.6833 15.1613 19.5879 15.5757L27.2598 17.6314L28 14.8689L19.5247 12.5979L27.2513 10.5276L26.5111 7.76515L18.0362 10.0359L23.6922 4.37996L21.6699 2.35766L15.552 8.47561L17.6246 0.740155Z" fill="white"/>
<path d="M19.5758 15.6081C19.3389 16.6094 18.8389 17.509 18.1528 18.2297L23.7108 23.7877L25.7331 21.7654L19.5758 15.6081Z" fill="white"/>
<path d="M18.0986 18.2878C17.4042 18.997 16.5267 19.5262 15.5427 19.799L17.5651 27.3468L20.3276 26.6066L18.0986 18.2878Z" fill="white"/>
<path d="M15.4435 19.8262C14.9869 19.9436 14.5084 20.0059 14.0152 20.0059C13.4869 20.0059 12.9753 19.9343 12.4896 19.8002L10.4653 27.3549L13.2278 28.0951L15.4435 19.8262Z" fill="white"/>
<path d="M12.3853 19.7728C11.4163 19.4865 10.5544 18.9505 9.87415 18.2393L4.30249 23.8109L6.32479 25.8332L12.3853 19.7728Z" fill="white"/>
<path d="M9.82916 18.1906C9.16063 17.4749 8.67366 16.5873 8.44187 15.6015L0.744873 17.6639L1.48508 20.4264L9.82916 18.1906Z" fill="white"/>
</g>
<defs>
<clipPath id="clip0_6_1015">
<rect width="127" height="29" fill="white"/>
</clipPath>
</defs>
</svg>
